<svg xmlns="http://www.w3.org/2000/svg" width="42.724" height="61.421" viewBox="0 0 42.724 61.421">
  <g id="Group_6400" data-name="Group 6400" transform="translate(-161.277 -230)">
    <g id="Path_13071" data-name="Path 13071" transform="translate(-102.905 -252.92)" fill="none" stroke-linecap="round" stroke-linejoin="round">
      <path d="M275.95,543.942a18.053,18.053,0,0,0,5.511-6.533c1.146-2.211,5.155-8.877,5.155-8.877l3.092-4.941a3.206,3.206,0,0,0-.921-4.32,3.363,3.363,0,0,0-4.62.413l-7.964,9.757-2.289-7.041V510.128l-8.293,9.571c-1.449,1.31-1.365,3.263-1.371,4.406l-.068,14.992c.029,1.54.627,2.629,1.705,2.952l7.1,2.132A4.123,4.123,0,0,0,275.95,543.942Z" stroke="none"/>
      <path d="M 274.2314453125 543.3408813476563 L 274.2314453125 543.3408813476563 C 274.8763427734375 543.3408813476563 275.2637634277344 543.2069091796875 275.3501281738281 543.1422119140625 C 276.3382263183594 542.4014282226563 278.6521301269531 540.6666259765625 280.5730590820313 536.9490356445313 C 281.7200012207031 534.7349243164063 285.5946044921875 528.2901000976563 285.7590026855469 528.016845703125 C 285.7619934082031 528.0118408203125 285.7650756835938 528.0068359375 285.7681579589844 528.0018920898438 L 288.8600158691406 523.0604858398438 C 288.8720092773438 523.0411987304688 288.8847045898438 523.0223999023438 288.8980102539063 523.0040893554688 C 289.1484985351563 522.658447265625 289.2467651367188 522.1397705078125 289.1608276367188 521.61669921875 C 289.0586242675781 520.9943237304688 288.7200317382813 520.4508056640625 288.2078552246094 520.0866088867188 C 287.7153930664063 519.7368774414063 287.1585998535156 519.552001953125 286.5976867675781 519.552001953125 C 285.924560546875 519.552001953125 285.3259887695313 519.824462890625 284.9554443359375 520.2996215820313 C 284.9508972167969 520.305419921875 284.9462890625 520.3112182617188 284.9415893554688 520.3169555664063 L 276.9776306152344 530.0741577148438 C 276.7857360839844 530.3092651367188 276.5000915527344 530.4418334960938 276.2030334472656 530.4418334960938 C 276.1418762207031 530.4418334960938 276.0802307128906 530.4362182617188 276.0188598632813 530.4247436523438 C 275.6592102050781 530.3573608398438 275.3650512695313 530.0989379882813 275.2519226074219 529.7509765625 L 272.9632568359375 522.7101440429688 C 272.9308166503906 522.6102905273438 272.9142761230469 522.5059814453125 272.9142761230469 522.4010009765625 L 272.9142761230469 512.8092651367188 L 266.3773498535156 520.3539428710938 C 266.3507385253906 520.3846435546875 266.322265625 520.4136962890625 266.2921142578125 520.4409790039063 C 265.2536926269531 521.3795166015625 265.2521362304688 522.839111328125 265.2510070800781 523.9049072265625 C 265.2509155273438 523.9758911132813 265.2508544921875 524.0444946289063 265.25048828125 524.1094360351563 L 265.1820678710938 539.0891723632813 C 265.1956787109375 539.735107421875 265.3438720703125 540.8417358398438 266.1748352050781 541.090576171875 L 273.2792663574219 543.22216796875 C 273.2815856933594 543.222900390625 273.2838745117188 543.2235717773438 273.2861938476563 543.2243041992188 C 273.5232543945313 543.2973022460938 273.8766174316406 543.3408813476563 274.2314453125 543.3408813476563 M 274.2313537597656 544.3408813476563 C 273.7776794433594 544.3408813476563 273.3302307128906 544.2841796875 272.9918823242188 544.1799926757813 L 265.887451171875 542.0484008789063 C 264.8087463378906 541.725341796875 264.2109985351563 540.6370239257813 264.1820068359375 539.0967407226563 L 264.25048828125 524.1048583984375 C 264.2568969726563 522.9625244140625 264.1723327636719 521.0089721679688 265.62158203125 519.6990966796875 L 273.9142761230469 510.1279907226563 L 273.9142761230469 522.4010009765625 L 276.2029418945313 529.4418334960938 L 284.1669006347656 519.6846313476563 C 284.7420959472656 518.9470825195313 285.6398315429688 518.552001953125 286.5976867675781 518.552001953125 C 287.3314819335938 518.552001953125 288.1006164550781 518.7838745117188 288.7869262695313 519.2713623046875 C 290.3231811523438 520.3637084960938 290.549560546875 522.4292602539063 289.7077331542969 523.5908813476563 L 286.6159057617188 528.5322875976563 C 286.6159057617188 528.5322875976563 282.6065063476563 535.1976318359375 281.4609985351563 537.4089965820313 C 279.5299987792969 541.1461181640625 277.2663269042969 542.9554443359375 275.9499816894531 543.9423217773438 C 275.5823059082031 544.2178344726563 274.8999938964844 544.3408813476563 274.2313537597656 544.3408813476563 Z" stroke="none" fill="#376EB4"/>
    </g>
    <path id="Path_13078" data-name="Path 13078" d="M861.974,643.69V625.315a3.972,3.972,0,0,1,.082-.807,3.886,3.886,0,0,1,.233-.75,3.97,3.97,0,0,1,.857-1.272,3.985,3.985,0,0,1,2.022-1.09,4.044,4.044,0,0,1,.806-.081h23a4.037,4.037,0,0,1,.806.081,4,4,0,0,1,2.023,1.09,4.02,4.02,0,0,1,.488.592,3.986,3.986,0,0,1,.6,1.43,4.047,4.047,0,0,1,.081.807v49a4.044,4.044,0,0,1-.081.806,4,4,0,0,1-1.682,2.51,4,4,0,0,1-2.237.684h-17.25" transform="translate(-689.974 -390.315)" fill="none" stroke="#376EB4" stroke-linecap="round" stroke-width="2"/>
  </g>
</svg>
